# xmcd
#
# Track frame offsets:
#	150
#	12842
#	21037
#	45615
#	71337
#	82202
#	92767
#	110952
#	121042
#	132725
#	159272
#	174730
#
# Disc length: 2489 seconds
#
# Revision: 1
# Processed by: cddbd v1.5PL3 Copyright (c) Steve Scherf et al.
# Submitted via: audiograbber 1.82.02
#
DISCID=9d09b70c
DTITLE=Willie Nelson - A song for you
DYEAR=1975
DGENRE=country
TTITLE0=A Song for You
TTITLE1=Just as I Am
TTITLE2=For the Good Times
TTITLE3=Amazing Grace
TTITLE4=Stormy Weather
TTITLE5=Blue Eyes Crying in the Rain
TTITLE6=Help Me Make It Through the Night
TTITLE7=Thanks Again
TTITLE8=One for My Baby (And One More for the Road)
TTITLE9=Loving Her Was Easier (Than Anything I'll Ever Do Again)
TTITLE10=Moonlight in Vermont
TTITLE11=That Lucky Old Sun (Just Rolls Around Heaven All Day)
EXTD=
EXTT0=
EXTT1=
EXTT2=
EXTT3=
EXTT4=
EXTT5=
EXTT6=
EXTT7=
EXTT8=
EXTT9=
EXTT10=
EXTT11=
PLAYORDER=
